<?xml version="1.0" encoding="utf-8"?>
<!-- Generator: Adobe Illustrator 16.0.0, SVG Export Plug-In . SVG Version: 6.00 Build 0)  -->
<!DOCTYPE svg PUBLIC "-//W3C//DTD SVG 1.1//EN" "http://www.w3.org/Graphics/SVG/1.1/DTD/svg11.dtd">
<svg version="1.1" id="Layer_1" xmlns="http://www.w3.org/2000/svg" xmlns:xlink="http://www.w3.org/1999/xlink" x="0px" y="0px"
	 width="178.56px" height="59.76px" viewBox="0 0 178.56 59.76" enable-background="new 0 0 178.56 59.76" xml:space="preserve">
<g>
	<path fill-rule="evenodd" clip-rule="evenodd" d="M178.856,60.069c-59.585,0-119.171,0-178.756,0c0-20.022,0-40.046,0-60.069
		c59.585,0,119.171,0,178.756,0C178.856,20.023,178.856,40.047,178.856,60.069z M27.322,7.192
		C14.629,7.119,4.138,17.479,4.087,30.288c-0.049,12.543,9.904,22.853,22.34,23.28c13.247,0.456,23.616-9.957,24.047-22.313
		C50.942,17.826,40.151,7.161,27.322,7.192z M74.165,22.079c0,2.165-0.016,4.329,0.017,6.493c0.005,0.328,0.16,0.726,0.381,0.966
		c0.799,0.868,1.664,1.676,2.486,2.522c0.316,0.326,0.672,0.431,1.117,0.429c2.613-0.014,5.227-0.016,7.841,0.001
		c0.488,0.004,0.862-0.149,1.197-0.491c0.781-0.797,1.565-1.59,2.369-2.364c0.339-0.326,0.48-0.696,0.472-1.155
		c-0.021-1.265-0.038-2.529-0.04-3.793c-0.005-2.979,0.012-5.958-0.019-8.937c-0.004-0.382-0.137-0.852-0.383-1.126
		c-0.822-0.915-1.71-1.772-2.603-2.621c-0.184-0.175-0.494-0.304-0.747-0.306c-2.78-0.021-5.561-0.021-8.341,0
		c-0.257,0.002-0.577,0.115-0.758,0.29c-0.92,0.891-1.819,1.806-2.688,2.747c-0.18,0.194-0.286,0.531-0.288,0.804
		C74.155,17.717,74.165,19.898,74.165,22.079z M153.921,19.614c0-0.172,0-0.333,0-0.493c0-1.216,0.021-2.433-0.015-3.647
		c-0.009-0.283-0.143-0.622-0.334-0.828c-0.816-0.877-1.656-1.736-2.533-2.553c-0.241-0.224-0.639-0.389-0.966-0.393
		c-2.698-0.031-5.396-0.031-8.096,0c-0.328,0.003-0.727,0.159-0.967,0.381c-0.87,0.8-1.706,1.638-2.508,2.506
		c-0.225,0.243-0.4,0.637-0.402,0.963c-0.025,4.363-0.024,8.726-0.001,13.088c0.002,0.313,0.162,0.694,0.376,0.925
		c0.816,0.877,1.667,1.725,2.548,2.537c0.23,0.213,0.615,0.361,0.931,0.365c2.698,0.028,5.396,0.028,8.095-0.001
		c0.313-0.003,0.692-0.161,0.922-0.374c0.878-0.815,1.729-1.662,2.542-2.542c0.223-0.242,0.383-0.637,0.391-0.966
		c0.042-1.814,0.027-3.63,0.031-5.446c0.001-0.728,0-1.457,0-2.188c-2.468,0-4.868,0-7.258,0c0,1.438,0,2.829,0,4.263
		c0.499,0,0.96,0,1.433,0c0.024,0.273,0.061,0.503,0.063,0.734c0.004,0.266-0.019,0.532-0.034,0.797
		c-0.038,0.606-0.439,1.014-1.055,1.028c-0.716,0.018-1.433,0.02-2.148,0c-0.676-0.02-1.092-0.44-1.093-1.104
		c-0.007-3.048-0.006-6.097-0.001-9.145c0.002-0.682,0.447-1.12,1.129-1.129c0.633-0.009,1.266-0.004,1.898-0.002
		c0.891,0.003,1.268,0.382,1.27,1.275c0.001,0.643,0,1.286,0,1.949C150.079,19.614,151.942,19.614,153.921,19.614z M122.246,32.439
		c5.109,0,10.163,0,15.244,0c0-1.82,0-3.608,0-5.421c-1.562,0-3.1,0-4.496,0c-0.185,0.294-0.309,0.682-0.451,0.688
		c-1.091,0.051-2.186,0.027-3.274,0.027c0-1.123,0-2.181,0-3.233c0.246,0,0.458,0,0.695,0c0.035,0.231,0.066,0.439,0.099,0.658
		c1.553,0,3.088,0,4.623,0c0-2.096,0-4.151,0-6.229c-1.559,0-3.083,0-4.605,0c-0.054,0.26-0.102,0.496-0.146,0.71
		c-0.26,0-0.466,0-0.663,0c0-1.094,0-2.149,0-3.237c0.919,0,1.799,0,2.68,0c0.783,0,0.783,0,0.935,0.729c1.535,0,3.07,0,4.594,0
		c0-1.834,0-3.624,0-5.409c-5.096,0-10.151,0-15.207,0c0,1.563,0,3.098,0,4.675c0.388,0,0.729,0,1.084,0c0,3.815,0,7.586,0,11.411
		c-0.392,0-0.749,0-1.11,0C122.246,29.376,122.246,30.888,122.246,32.439z M165.214,27.005c-0.043,0.234-0.085,0.459-0.13,0.705
		c-1.146,0-2.288,0-3.446,0c0-1.085,0-2.142,0-3.207c0.24,0,0.449,0,0.656,0c0.044,0.236,0.083,0.446,0.122,0.656
		c1.545,0,3.066,0,4.578,0c0-2.098,0-4.155,0-6.227c-1.541,0-3.048,0-4.57,0c-0.049,0.25-0.093,0.475-0.141,0.717
		c-0.215,0-0.421,0-0.646,0c0-1.085,0-2.141,0-3.217c1.173,0,2.313,0,3.453,0c0.045,0.254,0.086,0.481,0.126,0.708
		c1.567,0,3.105,0,4.652,0c0-1.828,0-3.617,0-5.415c-5.104,0-10.176,0-15.25,0c0,1.565,0,3.101,0,4.684c0.401,0,0.759,0,1.112,0
		c0,3.817,0,7.585,0,11.403c-0.417,0-0.792,0-1.157,0c0,1.572,0,3.095,0,4.617c5.123,0,10.207,0,15.293,0c0-1.831,0-3.62,0-5.425
		C168.303,27.005,166.774,27.005,165.214,27.005z M73.56,19.656c0-1.523,0.008-3.003-0.011-4.482
		c-0.002-0.156-0.135-0.337-0.255-0.461c-0.859-0.883-1.712-1.775-2.612-2.615c-0.242-0.225-0.64-0.394-0.969-0.397
		c-2.715-0.032-5.43-0.03-8.145-0.001c-0.311,0.003-0.687,0.167-0.916,0.381c-0.877,0.816-1.728,1.665-2.542,2.543
		c-0.213,0.23-0.367,0.613-0.369,0.927c-0.024,4.346-0.025,8.692,0.002,13.038c0.002,0.342,0.18,0.755,0.413,1.01
		c0.798,0.871,1.641,1.704,2.505,2.51c0.218,0.204,0.578,0.355,0.875,0.358c2.731,0.027,5.463,0.025,8.194,0.002
		c0.284-0.003,0.634-0.128,0.839-0.319c0.937-0.875,1.843-1.783,2.734-2.705c0.152-0.158,0.241-0.439,0.247-0.667
		c0.027-0.933,0.012-1.865,0.012-2.798c0-0.426,0-0.852,0-1.267c-1.964,0-3.855,0-5.783,0c0,0.68,0.006,1.325-0.001,1.97
		c-0.008,0.646-0.403,1.069-1.045,1.088c-0.699,0.021-1.399,0.02-2.098,0.002c-0.756-0.02-1.147-0.438-1.153-1.206
		c-0.009-1.199-0.013-2.398-0.014-3.598c-0.002-1.732-0.01-3.465,0.004-5.197c0.008-1.031,0.376-1.379,1.393-1.381
		c0.566-0.001,1.133-0.003,1.699,0c0.84,0.004,1.212,0.377,1.215,1.218c0.003,0.676,0,1.353,0,2.047
		C69.732,19.656,71.609,19.656,73.56,19.656z M113.474,27.757c0-3.807,0-7.575,0-11.394c0.389,0,0.748,0,1.129,0
		c0-1.572,0-3.094,0-4.634c-2.729,0-5.432,0-8.129,0c0,1.571,0,3.11,0,4.69c0.381,0,0.724,0,1.084,0c0,3.809,0,7.575,0,11.38
		c-0.385,0-0.729,0-1.08,0c0,1.573,0,3.107,0,4.638c5.128,0,10.214,0,15.322,0c0-1.958,0-3.88,0-5.818c-1.576,0-3.126,0-4.685,0
		c-0.018,0.403-0.033,0.764-0.05,1.139C115.855,27.757,114.692,27.757,113.474,27.757z M91.768,16.395c0,3.824,0,7.594,0,11.402
		c-0.382,0-0.727,0-1.083,0c0,1.573,0,3.108,0,4.638c5.129,0,10.217,0,15.32,0c0-1.961,0-3.884,0-5.831c-1.568,0-3.108,0-4.679,0
		c-0.019,0.382-0.035,0.738-0.052,1.106c-1.228,0-2.403,0-3.596,0c0-3.782,0-7.537,0-11.342c0.388,0,0.746,0,1.131,0
		c0-1.573,0-3.096,0-4.639c-2.727,0-5.43,0-8.123,0c0,1.571,0,3.108,0,4.666C91.061,16.395,91.393,16.395,91.768,16.395z
		 M68.034,40.286c-0.972-1.758-1.894-3.411-2.798-5.074c-0.205-0.377-0.458-0.559-0.905-0.549c-1.231,0.024-2.464,0.007-3.697,0.01
		c-0.142,0-0.284,0.023-0.424,0.035c0,0.808,0,1.567,0,2.381c0.499,0,0.974,0,1.468,0c0,2.338,0,4.623,0,6.973
		c-0.516,0-0.988,0-1.448,0c0,0.803,0,1.54,0,2.27c2.088,0,4.13,0,6.188,0c0-0.787,0-1.541,0-2.347c-0.493,0-0.952,0-1.417,0
		c0-0.984,0-1.918,0-2.851c0.025-0.008,0.051-0.016,0.076-0.023c0.998,1.781,1.997,3.562,3.021,5.39
		c0.995-1.832,1.95-3.59,2.904-5.348c0.026,0.009,0.051,0.019,0.077,0.027c0,0.935,0,1.869,0,2.853c-0.479,0-0.922,0-1.382,0
		c0,0.801,0,1.553,0,2.305c2.002,0,3.961,0,5.948,0c0-0.782,0-1.537,0-2.36c-0.498,0-0.969,0-1.43,0c0-2.338,0-4.608,0-6.927
		c0.5,0,0.959,0,1.43,0c0-0.806,0-1.563,0-2.365c-1.307,0-2.585,0.021-3.863-0.012c-0.452-0.011-0.7,0.161-0.904,0.537
		c-0.802,1.473-1.622,2.937-2.438,4.402C68.329,39.812,68.205,40.003,68.034,40.286z M113.448,46.388
		c0.611,0,1.174-0.002,1.737,0.001c1.663,0.01,3.329-0.038,4.988,0.056c1.142,0.064,2.14-0.123,3.003-0.892
		c0.261-0.232,0.579-0.412,0.795-0.678c0.207-0.255,0.439-0.588,0.444-0.89c0.036-2.312,0.025-4.625,0.011-6.938
		c-0.002-0.214-0.072-0.509-0.221-0.627c-0.713-0.568-1.457-1.099-2.206-1.619c-0.137-0.095-0.35-0.112-0.526-0.112
		c-2.579-0.012-5.159-0.014-7.738-0.016c-0.093,0-0.186,0.029-0.265,0.043c0,0.804,0,1.576,0,2.396c0.496,0,0.954,0,1.43,0
		c0,2.319,0,4.589,0,6.932c-0.498,0-0.969,0-1.452,0C113.448,44.848,113.448,45.575,113.448,46.388z M89.079,46.324
		c3.676,0,7.311,0,10.936,0c0-1.164,0-2.288,0-3.422c-1.043,0-2.053,0-3.089,0c-0.032,0.361-0.063,0.703-0.094,1.059
		c-1.013,0-1.99,0-2.997,0c0-0.737,0-1.459,0-2.241c1.023,0,2.013,0,3.03,0c0-0.815,0-1.57,0-2.396c-1.019,0-2.006,0-2.988,0
		c0-0.777,0-1.484,0-2.206c1.012,0,1.986,0,2.999,0c0.02,0.36,0.038,0.699,0.057,1.046c1.057,0,2.063,0,3.077,0
		c0-1.166,0-2.303,0-3.439c-3.661,0-7.284,0-10.916,0c0,0.8,0,1.571,0,2.384c0.496,0,0.956,0,1.438,0c0,2.316,0,4.59,0,6.928
		c-0.489,0-0.962,0-1.454,0C89.079,44.829,89.079,45.558,89.079,46.324z M169.777,43.991c-0.223,0-0.389-0.002-0.554,0
		c-1.01,0.014-1.008,0.014-1.322-0.928c-0.869-2.597-1.747-5.191-2.603-7.793c-0.148-0.451-0.381-0.643-0.867-0.606
		c-0.58,0.043-1.165,0.024-1.747,0.015c-0.808-0.013-0.811-0.016-1.063,0.733c-0.9,2.688-1.806,5.376-2.698,8.066
		c-0.129,0.387-0.313,0.592-0.756,0.524c-0.303-0.046-0.617-0.009-0.926-0.009c0,0.829,0,1.587,0,2.35c2.006,0,3.978,0,5.957,0
		c0-0.789,0-1.547,0-2.351c-0.405,0-0.783,0-1.234,0c0.141-0.415,0.259-0.766,0.374-1.107c0.537,0,1.02-0.009,1.502,0.002
		c0.853,0.02,1.017,0.187,1.078,1.117c-0.393,0-0.782,0-1.161,0c0,0.816,0,1.573,0,2.32c2.026,0,4.015,0,6.02,0
		C169.777,45.544,169.777,44.801,169.777,43.991z M137.787,44.035c0,0.815,0,1.567,0,2.304c2.032,0,4.022,0,6.007,0
		c0-0.794,0-1.552,0-2.359c-0.423,0-0.815,0-1.222,0c0-2.323,0-4.595,0-6.916c0.423,0,0.815,0,1.226,0c0-0.807,0-1.563,0-2.34
		c-2.001,0-3.974,0-5.98,0c0,0.785,0,1.542,0,2.363c0.485,0,0.957,0,1.433,0c0,2.338,0,4.611,0,6.948
		C138.746,44.035,138.272,44.035,137.787,44.035z M3.796,55.052c0-0.227-0.002-0.405,0-0.585c0.033-2.529,0.064-5.059,0.103-7.587
		c0.005-0.318-0.04-0.588-0.432-0.575c-0.355,0.011-0.46,0.237-0.46,0.573c0.004,2.947-0.003,5.895-0.004,8.841
		c0,0.078,0.025,0.155,0.04,0.243c0.14,0.007,0.254,0.024,0.369,0.018c2.076-0.113,4.151-0.229,6.227-0.345
		c0.73-0.04,1.461-0.078,2.192-0.12c0.252-0.016,0.434-0.081,0.458-0.401c0.041-0.533-0.288-0.5-0.641-0.48
		C9.058,54.772,6.468,54.91,3.796,55.052z M50.708,44.228c0.02,0.428,0.041,0.807,0.054,1.186c0.077,2.129,0.146,4.257,0.232,6.385
		c0.031,0.764,0.048,0.746-0.717,0.781c-2.144,0.096-4.287,0.2-6.43,0.315c-0.806,0.044-0.845,0.118-0.61,0.866
		c0.106,0.007,0.221,0.027,0.335,0.021c2.541-0.127,5.083-0.251,7.623-0.391c0.607-0.033,0.685-0.133,0.662-0.737
		c-0.096-2.576-0.197-5.152-0.303-7.729c-0.01-0.243-0.067-0.484-0.108-0.767C51.182,44.184,50.959,44.204,50.708,44.228z
		 M4.446,7.108c1.353,0,2.648,0.003,3.944-0.001c1.216-0.004,2.432-0.017,3.647-0.023c0.259-0.001,0.456-0.046,0.47-0.372
		c0.014-0.33-0.149-0.451-0.446-0.459c-0.066-0.002-0.133-0.004-0.2-0.003c-2.415,0.02-4.829,0.037-7.243,0.063
		c-0.31,0.004-0.619,0.06-0.905,0.089C3.684,6.484,3.664,6.515,3.664,6.545c-0.005,2.731-0.011,5.463-0.006,8.195
		c0,0.11,0.074,0.295,0.149,0.316c0.147,0.041,0.384,0.049,0.464-0.039c0.103-0.113,0.118-0.333,0.12-0.508
		c0.023-2.265,0.038-4.529,0.054-6.794C4.447,7.552,4.446,7.389,4.446,7.108z M49.074,6.623c0.036,0.615,0.079,1.178,0.101,1.741
		c0.072,1.793,0.127,3.587,0.217,5.38c0.008,0.153,0.194,0.387,0.341,0.428c0.388,0.107,0.47-0.149,0.455-0.49
		c-0.11-2.457-0.215-4.915-0.312-7.373c-0.017-0.417-0.232-0.533-0.612-0.526c-2.411,0.041-4.822,0.072-7.232,0.105
		c-0.25,0.003-0.469,0.025-0.465,0.365c0.002,0.329,0.171,0.441,0.472,0.431c0.697-0.022,1.395-0.055,2.092-0.059
		C45.758,6.617,47.386,6.623,49.074,6.623z"/>
	<path fill-rule="evenodd" clip-rule="evenodd" fill="#EE273F" d="M27.322,7.192c12.829-0.031,23.62,10.634,23.152,24.063
		c-0.431,12.355-10.8,22.769-24.047,22.313c-12.436-0.428-22.389-10.737-22.34-23.28C4.138,17.479,14.629,7.119,27.322,7.192z
		 M14.27,19.141c-0.001-0.021-0.002-0.042-0.003-0.063c-0.981,0-1.964-0.029-2.943,0.017c-0.318,0.015-0.691,0.153-0.93,0.36
		c-1.281,1.113-2.525,2.269-3.789,3.401c-0.271,0.242-0.38,0.503-0.336,0.876c0.348,2.905,0.679,5.812,1.014,8.719
		c0.31,2.692,0.618,5.385,0.927,8.077c0.047,0.408,0.163,0.758,0.557,0.996c1.479,0.896,2.934,1.832,4.424,2.707
		c0.284,0.167,0.706,0.22,1.038,0.165c3.358-0.561,6.712-1.146,10.063-1.749c0.309-0.056,0.673-0.2,0.866-0.427
		c0.938-1.102,1.843-2.232,2.722-3.383c0.184-0.24,0.303-0.608,0.29-0.91c-0.056-1.262-0.195-2.52-0.255-3.782
		c-0.02-0.423-0.179-0.505-0.546-0.472c-1.905,0.174-3.811,0.339-5.716,0.503c-0.375,0.032-0.459,0.236-0.421,0.58
		c0.072,0.645,0.128,1.291,0.166,1.938c0.03,0.507-0.318,1.072-0.79,1.137c-1.118,0.154-2.244,0.286-3.37,0.33
		c-0.68,0.027-1.047-0.492-1.057-1.18c-0.008-0.564-0.054-1.129-0.113-1.69c-0.313-2.977-0.638-5.952-0.953-8.929
		c-0.058-0.548,0.452-1.169,0.986-1.176c1.082-0.014,2.165-0.014,3.248,0.008c0.606,0.013,1.099,0.536,1.149,1.148
		c0.057,0.679,0.137,1.358,0.174,2.039c0.021,0.385,0.187,0.531,0.562,0.516c1.912-0.08,3.824-0.152,5.735-0.225
		c0.364-0.015,0.546-0.163,0.509-0.56c-0.125-1.358-0.211-2.72-0.366-4.075c-0.036-0.317-0.214-0.677-0.441-0.901
		c-1.114-1.098-2.263-2.161-3.41-3.224c-0.124-0.115-0.311-0.212-0.475-0.223C19.948,19.498,17.109,19.321,14.27,19.141z
		 M38.776,27.85c-0.124-0.183-0.212-0.299-0.287-0.424c-1.273-2.123-2.556-4.241-3.812-6.375c-0.394-0.669-0.917-0.985-1.704-0.986
		c-1.163-0.001-2.326-0.09-3.49-0.122c-0.725-0.02-1.452-0.004-2.167-0.004c-0.023,0.121-0.043,0.17-0.04,0.218
		c0.105,1.526,0.21,3.053,0.321,4.579c0.03,0.412,0.318,0.445,0.647,0.425c0.707-0.043,0.688-0.037,0.739,0.68
		c0.182,2.571,0.38,5.141,0.569,7.712c0.075,1.023,0.143,2.048,0.215,3.089c-0.43,0.097-0.825,0.185-1.243,0.278
		c0.122,1.659,0.24,3.262,0.361,4.913c2.683-0.459,5.308-0.907,7.953-1.358c-0.121-1.575-0.237-3.075-0.354-4.604
		c-0.247,0.019-0.436,0.002-0.605,0.052c-0.405,0.119-0.49-0.055-0.492-0.422c-0.003-0.515-0.061-1.028-0.087-1.544
		c-0.039-0.771-0.072-1.542-0.107-2.313c0.033-0.014,0.066-0.026,0.1-0.04c1.338,2.051,2.676,4.1,4.046,6.199
		c1.029-2.283,2.034-4.515,3.039-6.746c0.03,0.013,0.061,0.025,0.092,0.039c0.071,1.308,0.143,2.616,0.215,3.929
		c-0.187,0.055-0.33,0.137-0.468,0.129c-0.505-0.027-0.576,0.246-0.532,0.663c0.054,0.512,0.072,1.027,0.105,1.542
		c0.045,0.708,0.09,1.416,0.136,2.146c0.154-0.01,0.27-0.007,0.381-0.025c1.785-0.301,3.569-0.608,5.354-0.902
		c0.301-0.05,0.314-0.231,0.302-0.466c-0.034-0.665-0.058-1.329-0.091-1.993c-0.027-0.542-0.062-1.082-0.094-1.651
		c-0.292,0.03-0.521,0.054-0.789,0.081c-0.143-3.136-0.286-6.267-0.429-9.415c0.308-0.03,0.547-0.054,0.716-0.071
		c0-1.29,0.013-2.535-0.008-3.779c-0.005-0.315-0.225-0.484-0.565-0.499c-1.313-0.058-2.626-0.112-3.937-0.205
		c-0.465-0.033-0.69,0.154-0.87,0.555c-0.737,1.652-1.495,3.295-2.253,4.938C39.375,26.652,39.083,27.223,38.776,27.85z"/>
	<path fill-rule="evenodd" clip-rule="evenodd" fill="#FFFFFF" d="M74.165,22.079c0-2.181-0.01-4.362,0.013-6.543
		c0.002-0.272,0.108-0.609,0.288-0.804c0.87-0.94,1.769-1.855,2.688-2.747c0.181-0.175,0.501-0.288,0.758-0.29
		c2.78-0.021,5.561-0.021,8.341,0c0.253,0.002,0.563,0.131,0.747,0.306c0.893,0.848,1.781,1.706,2.603,2.621
		c0.246,0.274,0.379,0.744,0.383,1.126c0.031,2.979,0.013,5.958,0.019,8.937c0.002,1.265,0.02,2.529,0.04,3.793
		c0.008,0.459-0.133,0.829-0.472,1.155c-0.804,0.774-1.588,1.567-2.369,2.364c-0.334,0.342-0.708,0.495-1.197,0.491
		c-2.614-0.017-5.228-0.015-7.841-0.001c-0.444,0.002-0.801-0.103-1.117-0.429c-0.823-0.847-1.688-1.654-2.486-2.522
		c-0.221-0.24-0.376-0.638-0.381-0.966C74.149,26.408,74.165,24.243,74.165,22.079z M84.26,22.132c0-1.498,0.002-2.995,0-4.493
		c-0.001-0.892-0.351-1.251-1.224-1.259c-0.649-0.006-1.298-0.006-1.947,0c-0.773,0.007-1.159,0.386-1.179,1.164
		c-0.012,0.466-0.003,0.932-0.003,1.398c0,2.529-0.002,5.058,0.002,7.587c0.001,0.857,0.372,1.247,1.185,1.257
		c0.682,0.009,1.364,0.011,2.046,0c0.734-0.012,1.118-0.416,1.119-1.162C84.262,25.126,84.26,23.629,84.26,22.132z"/>
	<path fill-rule="evenodd" clip-rule="evenodd" fill="#FFFFFF" d="M153.921,19.614c-1.979,0-3.842,0-5.782,0
		c0-0.663,0.001-1.306,0-1.949c-0.002-0.894-0.379-1.272-1.27-1.275c-0.633-0.002-1.266-0.007-1.898,0.002
		c-0.682,0.01-1.127,0.448-1.129,1.129c-0.005,3.048-0.006,6.096,0.001,9.145c0.001,0.664,0.417,1.085,1.093,1.104
		c0.716,0.02,1.433,0.018,2.148,0c0.615-0.015,1.017-0.422,1.055-1.028c0.016-0.265,0.038-0.531,0.034-0.797
		c-0.003-0.23-0.039-0.461-0.063-0.734c-0.473,0-0.934,0-1.433,0c0-1.434,0-2.825,0-4.263c2.39,0,4.79,0,7.258,0
		c0,0.732,0.001,1.46,0,2.188c-0.004,1.815,0.011,3.631-0.031,5.446c-0.008,0.329-0.168,0.724-0.391,0.966
		c-0.813,0.88-1.664,1.727-2.542,2.542c-0.229,0.213-0.609,0.371-0.922,0.374c-2.698,0.029-5.396,0.029-8.095,0.001
		c-0.315-0.004-0.7-0.152-0.931-0.365c-0.881-0.813-1.731-1.66-2.548-2.537c-0.214-0.23-0.374-0.612-0.376-0.925
		c-0.023-4.363-0.024-8.726,0.001-13.088c0.002-0.326,0.178-0.72,0.402-0.963c0.802-0.868,1.638-1.707,2.508-2.506
		c0.24-0.222,0.639-0.377,0.967-0.381c2.699-0.03,5.397-0.031,8.096,0c0.327,0.004,0.725,0.169,0.966,0.393
		c0.877,0.817,1.717,1.675,2.533,2.553c0.191,0.206,0.325,0.545,0.334,0.828c0.035,1.215,0.015,2.432,0.015,3.647
		C153.921,19.282,153.921,19.442,153.921,19.614z"/>
	<path fill-rule="evenodd" clip-rule="evenodd" fill="#FFFFFF" d="M122.246,32.439c0-1.552,0-3.063,0-4.63c0.361,0,0.719,0,1.11,0
		c0-3.824,0-7.596,0-11.411c-0.354,0-0.696,0-1.084,0c0-1.577,0-3.112,0-4.675c5.056,0,10.111,0,15.207,0c0,1.785,0,3.575,0,5.409
		c-1.523,0-3.059,0-4.594,0c-0.151-0.729-0.151-0.729-0.935-0.729c-0.881,0-1.761,0-2.68,0c0,1.087,0,2.143,0,3.237
		c0.197,0,0.403,0,0.663,0c0.044-0.214,0.092-0.45,0.146-0.71c1.522,0,3.047,0,4.605,0c0,2.078,0,4.134,0,6.229
		c-1.535,0-3.07,0-4.623,0c-0.032-0.218-0.063-0.427-0.099-0.658c-0.237,0-0.449,0-0.695,0c0,1.052,0,2.11,0,3.233
		c1.089,0,2.184,0.023,3.274-0.027c0.143-0.007,0.267-0.395,0.451-0.688c1.396,0,2.935,0,4.496,0c0,1.813,0,3.601,0,5.421
		C132.409,32.439,127.355,32.439,122.246,32.439z"/>
	<path fill-rule="evenodd" clip-rule="evenodd" fill="#FFFFFF" d="M165.214,27.005c1.561,0,3.089,0,4.653,0c0,1.805,0,3.594,0,5.425
		c-5.086,0-10.17,0-15.293,0c0-1.522,0-3.045,0-4.617c0.365,0,0.74,0,1.157,0c0-3.818,0-7.586,0-11.403c-0.354,0-0.711,0-1.112,0
		c0-1.583,0-3.119,0-4.684c5.074,0,10.146,0,15.25,0c0,1.798,0,3.587,0,5.415c-1.547,0-3.085,0-4.652,0
		c-0.04-0.228-0.081-0.455-0.126-0.708c-1.141,0-2.28,0-3.453,0c0,1.076,0,2.132,0,3.217c0.225,0,0.431,0,0.646,0
		c0.048-0.242,0.092-0.467,0.141-0.717c1.522,0,3.029,0,4.57,0c0,2.072,0,4.129,0,6.227c-1.512,0-3.033,0-4.578,0
		c-0.039-0.21-0.078-0.419-0.122-0.656c-0.207,0-0.416,0-0.656,0c0,1.065,0,2.122,0,3.207c1.158,0,2.3,0,3.446,0
		C165.129,27.464,165.171,27.239,165.214,27.005z"/>
	<path fill-rule="evenodd" clip-rule="evenodd" fill="#FFFFFF" d="M73.56,19.656c-1.951,0-3.828,0-5.781,0
		c0-0.695,0.002-1.371,0-2.047c-0.003-0.84-0.375-1.213-1.215-1.218c-0.566-0.003-1.132-0.002-1.699,0
		c-1.017,0.002-1.385,0.35-1.393,1.381c-0.014,1.732-0.006,3.464-0.004,5.197c0.001,1.199,0.005,2.398,0.014,3.598
		c0.005,0.768,0.396,1.186,1.153,1.206c0.699,0.018,1.399,0.019,2.098-0.002c0.642-0.019,1.038-0.442,1.045-1.088
		c0.007-0.645,0.001-1.29,0.001-1.97c1.928,0,3.818,0,5.783,0c0,0.416,0,0.841,0,1.267c0,0.933,0.016,1.865-0.012,2.798
		c-0.006,0.228-0.095,0.509-0.247,0.667c-0.891,0.922-1.797,1.83-2.734,2.705c-0.205,0.191-0.555,0.316-0.839,0.319
		c-2.731,0.023-5.463,0.025-8.194-0.002c-0.297-0.003-0.657-0.154-0.875-0.358c-0.864-0.806-1.707-1.639-2.505-2.51
		c-0.233-0.255-0.411-0.668-0.413-1.01c-0.027-4.346-0.026-8.692-0.002-13.038c0.001-0.314,0.156-0.697,0.369-0.927
		c0.814-0.878,1.665-1.727,2.542-2.543c0.229-0.214,0.605-0.377,0.916-0.381c2.715-0.029,5.43-0.031,8.145,0.001
		c0.329,0.003,0.728,0.172,0.969,0.397c0.9,0.84,1.753,1.732,2.612,2.615c0.12,0.124,0.253,0.305,0.255,0.461
		C73.567,16.653,73.56,18.133,73.56,19.656z"/>
	<path fill-rule="evenodd" clip-rule="evenodd" fill="#FFFFFF" d="M113.474,27.757c1.219,0,2.382,0,3.592,0
		c0.017-0.375,0.032-0.735,0.05-1.139c1.559,0,3.108,0,4.685,0c0,1.938,0,3.86,0,5.818c-5.108,0-10.194,0-15.322,0
		c0-1.53,0-3.064,0-4.638c0.352,0,0.695,0,1.08,0c0-3.805,0-7.571,0-11.38c-0.36,0-0.703,0-1.084,0c0-1.58,0-3.119,0-4.69
		c2.697,0,5.399,0,8.129,0c0,1.54,0,3.062,0,4.634c-0.381,0-0.74,0-1.129,0C113.474,20.182,113.474,23.95,113.474,27.757z"/>
	<path fill-rule="evenodd" clip-rule="evenodd" fill="#FFFFFF" d="M91.768,16.395c-0.375,0-0.707,0-1.081,0c0-1.558,0-3.095,0-4.666
		c2.693,0,5.396,0,8.123,0c0,1.542,0,3.065,0,4.639c-0.385,0-0.743,0-1.131,0c0,3.805,0,7.56,0,11.342c1.192,0,2.368,0,3.596,0
		c0.017-0.368,0.033-0.724,0.052-1.106c1.57,0,3.11,0,4.679,0c0,1.947,0,3.87,0,5.831c-5.104,0-10.191,0-15.32,0
		c0-1.529,0-3.064,0-4.638c0.356,0,0.701,0,1.083,0C91.768,23.989,91.768,20.219,91.768,16.395z"/>
	<path fill-rule="evenodd" clip-rule="evenodd" fill="#FFFFFF" d="M68.034,40.286c0.171-0.283,0.295-0.475,0.407-0.674
		c0.815-1.466,1.635-2.93,2.438-4.402c0.205-0.376,0.452-0.548,0.904-0.537c1.277,0.032,2.556,0.012,3.863,0.012
		c0,0.802,0,1.56,0,2.365c-0.47,0-0.93,0-1.43,0c0,2.318,0,4.589,0,6.927c0.461,0,0.932,0,1.43,0c0,0.823,0,1.578,0,2.36
		c-1.987,0-3.946,0-5.948,0c0-0.752,0-1.504,0-2.305c0.46,0,0.903,0,1.382,0c0-0.983,0-1.918,0-2.853
		c-0.025-0.009-0.051-0.019-0.077-0.027c-0.955,1.758-1.91,3.516-2.904,5.348c-1.025-1.828-2.023-3.608-3.021-5.39
		c-0.025,0.008-0.051,0.016-0.076,0.023c0,0.933,0,1.866,0,2.851c0.465,0,0.924,0,1.417,0c0,0.806,0,1.56,0,2.347
		c-2.059,0-4.1,0-6.188,0c0-0.729,0-1.467,0-2.27c0.46,0,0.932,0,1.448,0c0-2.35,0-4.635,0-6.973c-0.494,0-0.969,0-1.468,0
		c0-0.813,0-1.573,0-2.381c0.141-0.012,0.283-0.035,0.424-0.035c1.232-0.003,2.465,0.015,3.697-0.01
		c0.448-0.01,0.701,0.172,0.905,0.549C66.14,36.875,67.062,38.528,68.034,40.286z"/>
	<path fill-rule="evenodd" clip-rule="evenodd" fill="#FFFFFF" d="M113.448,46.388c0-0.813,0-1.54,0-2.343c0.483,0,0.954,0,1.452,0
		c0-2.343,0-4.612,0-6.932c-0.476,0-0.934,0-1.43,0c0-0.82,0-1.593,0-2.396c0.079-0.014,0.172-0.043,0.265-0.043
		c2.579,0.002,5.159,0.004,7.738,0.016c0.177,0,0.39,0.018,0.526,0.112c0.749,0.521,1.493,1.051,2.206,1.619
		c0.148,0.118,0.219,0.413,0.221,0.627c0.015,2.313,0.025,4.626-0.011,6.938c-0.005,0.302-0.237,0.635-0.444,0.89
		c-0.216,0.266-0.534,0.445-0.795,0.678c-0.863,0.769-1.861,0.956-3.003,0.892c-1.659-0.094-3.325-0.046-4.988-0.056
		C114.622,46.386,114.06,46.388,113.448,46.388z M121.226,37.105c-1.038,0-2.028,0-3.046,0c0,2.293,0,4.561,0,6.85
		c1.028,0,2.029,0,3.046,0C121.226,41.663,121.226,39.406,121.226,37.105z"/>
	<path fill-rule="evenodd" clip-rule="evenodd" fill="#FFFFFF" d="M89.079,46.324c0-0.767,0-1.495,0-2.288c0.491,0,0.964,0,1.454,0
		c0-2.338,0-4.611,0-6.928c-0.482,0-0.943,0-1.438,0c0-0.813,0-1.584,0-2.384c3.632,0,7.255,0,10.916,0c0,1.137,0,2.273,0,3.439
		c-1.014,0-2.021,0-3.077,0c-0.019-0.347-0.037-0.686-0.057-1.046c-1.013,0-1.987,0-2.999,0c0,0.722,0,1.429,0,2.206
		c0.982,0,1.97,0,2.988,0c0,0.825,0,1.58,0,2.396c-1.017,0-2.007,0-3.03,0c0,0.782,0,1.504,0,2.241c1.006,0,1.984,0,2.997,0
		c0.031-0.355,0.062-0.697,0.094-1.059c1.036,0,2.046,0,3.089,0c0,1.134,0,2.258,0,3.422C96.39,46.324,92.754,46.324,89.079,46.324z
		"/>
	<path fill-rule="evenodd" clip-rule="evenodd" fill="#FFFFFF" d="M169.777,43.991c0,0.81,0,1.553,0,2.334c-2.005,0-3.993,0-6.02,0
		c0-0.747,0-1.504,0-2.32c0.379,0,0.769,0,1.161,0c-0.062-0.931-0.226-1.098-1.078-1.117c-0.482-0.011-0.965-0.002-1.502-0.002
		c-0.115,0.342-0.233,0.692-0.374,1.107c0.451,0,0.829,0,1.234,0c0,0.804,0,1.562,0,2.351c-1.979,0-3.951,0-5.957,0
		c0-0.763,0-1.521,0-2.35c0.309,0,0.623-0.037,0.926,0.009c0.443,0.067,0.627-0.138,0.756-0.524c0.893-2.69,1.798-5.378,2.698-8.066
		c0.252-0.749,0.255-0.746,1.063-0.733c0.582,0.01,1.167,0.028,1.747-0.015c0.486-0.036,0.719,0.155,0.867,0.606
		c0.855,2.602,1.733,5.196,2.603,7.793c0.314,0.941,0.313,0.941,1.322,0.928C169.389,43.989,169.555,43.991,169.777,43.991z
		 M163.121,40.459c0.266,0,0.471,0,0.725,0c-0.126-0.343-0.234-0.64-0.376-1.026C163.336,39.827,163.235,40.122,163.121,40.459z"/>
	<path fill-rule="evenodd" clip-rule="evenodd" fill="#FFFFFF" d="M137.787,44.035c0.485,0,0.959,0,1.463,0c0-2.337,0-4.61,0-6.948
		c-0.476,0-0.947,0-1.433,0c0-0.821,0-1.578,0-2.363c2.007,0,3.979,0,5.98,0c0,0.776,0,1.533,0,2.34c-0.41,0-0.803,0-1.226,0
		c0,2.321,0,4.593,0,6.916c0.406,0,0.799,0,1.222,0c0,0.808,0,1.565,0,2.359c-1.984,0-3.975,0-6.007,0
		C137.787,45.603,137.787,44.851,137.787,44.035z"/>
	<path fill-rule="evenodd" clip-rule="evenodd" fill="#EE273F" d="M3.796,55.052c2.672-0.142,5.262-0.279,7.851-0.419
		c0.353-0.02,0.682-0.053,0.641,0.48c-0.024,0.32-0.206,0.386-0.458,0.401c-0.73,0.042-1.461,0.08-2.192,0.12
		c-2.076,0.115-4.151,0.231-6.227,0.345c-0.114,0.007-0.229-0.011-0.369-0.018c-0.015-0.088-0.04-0.165-0.04-0.243
		c0.001-2.946,0.008-5.894,0.004-8.841c0-0.336,0.105-0.563,0.46-0.573c0.392-0.013,0.437,0.257,0.432,0.575
		c-0.038,2.528-0.069,5.058-0.103,7.587C3.794,54.646,3.796,54.825,3.796,55.052z"/>
	<path fill-rule="evenodd" clip-rule="evenodd" fill="#EE273F" d="M50.708,44.228c0.25-0.023,0.473-0.044,0.739-0.068
		c0.041,0.282,0.099,0.523,0.108,0.767c0.106,2.576,0.207,5.152,0.303,7.729c0.022,0.604-0.055,0.704-0.662,0.737
		c-2.541,0.14-5.082,0.264-7.623,0.391c-0.114,0.006-0.229-0.015-0.335-0.021c-0.235-0.748-0.196-0.822,0.61-0.866
		c2.143-0.115,4.286-0.22,6.43-0.315c0.765-0.035,0.748-0.018,0.717-0.781c-0.086-2.128-0.155-4.256-0.232-6.385
		C50.749,45.034,50.728,44.655,50.708,44.228z"/>
	<path fill-rule="evenodd" clip-rule="evenodd" fill="#EE273F" d="M4.446,7.108c0,0.281,0.001,0.444,0,0.606
		c-0.016,2.265-0.031,4.529-0.054,6.794c-0.002,0.175-0.017,0.395-0.12,0.508c-0.08,0.088-0.317,0.08-0.464,0.039
		c-0.075-0.021-0.149-0.206-0.149-0.316c-0.005-2.731,0-5.463,0.006-8.195c0-0.03,0.02-0.061,0.049-0.143
		c0.286-0.029,0.595-0.085,0.905-0.089c2.415-0.027,4.829-0.044,7.243-0.063c0.066,0,0.133,0.001,0.2,0.003
		c0.297,0.008,0.46,0.129,0.446,0.459c-0.014,0.326-0.211,0.371-0.47,0.372C10.822,7.09,9.606,7.103,8.39,7.107
		C7.094,7.111,5.798,7.108,4.446,7.108z"/>
	<path fill-rule="evenodd" clip-rule="evenodd" fill="#EE273F" d="M49.074,6.623c-1.688,0-3.316-0.006-4.944,0.003
		c-0.698,0.003-1.395,0.036-2.092,0.059c-0.301,0.01-0.47-0.103-0.472-0.431c-0.003-0.34,0.215-0.362,0.465-0.365
		c2.411-0.034,4.822-0.064,7.232-0.105c0.38-0.007,0.596,0.109,0.612,0.526c0.097,2.458,0.202,4.916,0.312,7.373
		c0.015,0.341-0.067,0.597-0.455,0.49c-0.147-0.041-0.333-0.274-0.341-0.428c-0.089-1.792-0.145-3.587-0.217-5.38
		C49.153,7.8,49.11,7.237,49.074,6.623z"/>
	<path fill-rule="evenodd" clip-rule="evenodd" fill="#FFFFFF" d="M14.27,19.141c2.839,0.18,5.678,0.357,8.516,0.549
		c0.164,0.011,0.351,0.108,0.475,0.223c1.147,1.063,2.296,2.126,3.41,3.224c0.228,0.224,0.405,0.584,0.441,0.901
		c0.154,1.354,0.241,2.716,0.366,4.075c0.037,0.396-0.146,0.545-0.509,0.56c-1.912,0.072-3.824,0.145-5.735,0.225
		c-0.375,0.016-0.541-0.131-0.562-0.516c-0.037-0.681-0.117-1.359-0.174-2.039c-0.051-0.612-0.543-1.135-1.149-1.148
		c-1.083-0.022-2.166-0.022-3.248-0.008c-0.534,0.007-1.044,0.628-0.986,1.176c0.315,2.977,0.64,5.952,0.953,8.929
		c0.059,0.562,0.105,1.126,0.113,1.69c0.01,0.688,0.376,1.207,1.057,1.18c1.126-0.044,2.252-0.176,3.37-0.33
		c0.472-0.064,0.82-0.63,0.79-1.137c-0.038-0.647-0.094-1.294-0.166-1.938c-0.039-0.344,0.045-0.548,0.421-0.58
		c1.906-0.164,3.812-0.329,5.716-0.503c0.367-0.033,0.526,0.049,0.546,0.472c0.06,1.263,0.199,2.521,0.255,3.782
		c0.013,0.302-0.106,0.67-0.29,0.91c-0.878,1.15-1.783,2.281-2.722,3.383c-0.193,0.227-0.558,0.371-0.866,0.427
		c-3.351,0.603-6.704,1.188-10.063,1.749c-0.332,0.055-0.753,0.002-1.038-0.165c-1.49-0.875-2.944-1.812-4.424-2.707
		c-0.394-0.238-0.51-0.588-0.557-0.996c-0.309-2.692-0.617-5.385-0.927-8.077c-0.334-2.907-0.666-5.814-1.014-8.719
		c-0.044-0.374,0.065-0.634,0.336-0.876c1.264-1.133,2.508-2.289,3.789-3.401c0.239-0.208,0.612-0.346,0.93-0.36
		c0.979-0.046,1.961-0.017,2.943-0.017C14.268,19.098,14.269,19.119,14.27,19.141z"/>
	<path fill-rule="evenodd" clip-rule="evenodd" fill="#FFFFFF" d="M38.776,27.85c0.307-0.627,0.599-1.198,0.867-1.779
		c0.758-1.643,1.516-3.286,2.253-4.938c0.179-0.401,0.404-0.588,0.87-0.555c1.311,0.093,2.624,0.147,3.937,0.205
		c0.341,0.015,0.56,0.184,0.565,0.499c0.021,1.245,0.008,2.489,0.008,3.779c-0.169,0.017-0.408,0.041-0.716,0.071
		c0.144,3.148,0.286,6.279,0.429,9.415c0.268-0.027,0.497-0.051,0.789-0.081c0.033,0.569,0.067,1.109,0.094,1.651
		c0.033,0.664,0.057,1.328,0.091,1.993c0.012,0.234,0,0.416-0.302,0.466c-1.786,0.294-3.569,0.602-5.354,0.902
		c-0.111,0.019-0.227,0.016-0.381,0.025c-0.046-0.729-0.091-1.438-0.136-2.146c-0.033-0.515-0.051-1.03-0.105-1.542
		c-0.044-0.417,0.026-0.69,0.532-0.663c0.138,0.008,0.281-0.074,0.468-0.129c-0.072-1.313-0.144-2.621-0.215-3.929
		c-0.031-0.014-0.062-0.026-0.092-0.039c-1.005,2.231-2.01,4.463-3.039,6.746c-1.37-2.1-2.708-4.148-4.046-6.199
		c-0.033,0.014-0.066,0.026-0.1,0.04c0.036,0.771,0.068,1.543,0.107,2.313c0.026,0.516,0.084,1.029,0.087,1.544
		c0.002,0.367,0.087,0.541,0.492,0.422c0.169-0.05,0.358-0.033,0.605-0.052c0.118,1.529,0.233,3.029,0.354,4.604
		c-2.645,0.451-5.27,0.899-7.953,1.358c-0.121-1.651-0.239-3.254-0.361-4.913c0.418-0.094,0.813-0.182,1.243-0.278
		c-0.072-1.041-0.14-2.065-0.215-3.089c-0.189-2.571-0.387-5.141-0.569-7.712c-0.051-0.717-0.032-0.723-0.739-0.68
		c-0.329,0.02-0.617-0.013-0.647-0.425c-0.111-1.526-0.216-3.053-0.321-4.579c-0.003-0.048,0.017-0.097,0.04-0.218
		c0.715,0,1.441-0.016,2.167,0.004c1.164,0.032,2.327,0.121,3.49,0.122c0.788,0.001,1.31,0.316,1.704,0.986
		c1.256,2.134,2.538,4.251,3.812,6.375C38.564,27.551,38.652,27.667,38.776,27.85z"/>
	<path fill-rule="evenodd" clip-rule="evenodd" d="M84.26,22.132c0,1.497,0.002,2.995-0.001,4.492
		c-0.001,0.746-0.385,1.15-1.119,1.162c-0.682,0.011-1.364,0.009-2.046,0c-0.813-0.011-1.184-0.4-1.185-1.257
		c-0.004-2.529-0.002-5.059-0.002-7.587c0-0.466-0.009-0.932,0.003-1.398c0.02-0.778,0.406-1.156,1.179-1.164
		c0.649-0.006,1.298-0.006,1.947,0c0.874,0.008,1.223,0.368,1.224,1.259C84.262,19.137,84.26,20.634,84.26,22.132z"/>
	<path fill-rule="evenodd" clip-rule="evenodd" d="M121.226,37.105c0,2.301,0,4.558,0,6.85c-1.017,0-2.018,0-3.046,0
		c0-2.289,0-4.557,0-6.85C119.197,37.105,120.188,37.105,121.226,37.105z"/>
	<path fill-rule="evenodd" clip-rule="evenodd" d="M163.121,40.459c0.114-0.337,0.215-0.632,0.349-1.026
		c0.142,0.387,0.25,0.684,0.376,1.026C163.592,40.459,163.387,40.459,163.121,40.459z"/>
</g>
</svg>
